<svg width="232" height="238" viewBox="0 0 232 238" fill="none" xmlns="http://www.w3.org/2000/svg">
<g id="Frame">
<g clip-path="url(#clip0_132_128)">
<g id="Group">
<path id="Vector" d="M6.05682 94.4913L7.58049 98.916L6.4543 99.2523L5.18616 94.7234L2.19087 98.3285L1.30127 97.5564L4.51423 94.1597L0 93.3401L0.255522 92.1558L4.7177 93.2548L3.19403 88.8301L4.32022 88.4938L5.58363 93.018L8.57892 89.4128L9.46852 90.185L6.25556 93.5817L10.7698 94.425L10.5143 95.6093L6.05682 94.4913Z" fill="white"/>
<path id="Vector_2" d="M15.2272 85.5282C10.7367 83.6333 9.34076 78.8438 11.6736 73.3011C13.5285 68.9001 16.8976 66.3467 20.243 66.8346L19.6137 68.3316C17.0112 68.1279 14.3755 70.2692 12.8849 73.8127C10.9117 78.498 12.0947 82.5295 15.8234 84.1023C19.5758 85.6845 23.2856 83.7233 25.2588 79.038C26.7541 75.4945 26.4182 72.1026 24.4781 70.3876L25.1074 68.8906C27.7715 70.9372 28.3204 75.1487 26.4655 79.5497C24.1421 85.0924 19.7178 87.4232 15.2272 85.5282Z" fill="white"/>
<path id="Vector_3" d="M24.7999 63.9875C20.8393 61.1451 20.6121 56.0571 24.038 51.2724C27.4497 46.5114 32.3472 45.0712 36.3078 47.9136C40.2684 50.756 40.5003 55.8818 37.0933 60.6429C33.6722 65.4276 28.7652 66.8299 24.7999 63.9875ZM36.0286 59.8754C38.882 55.8913 38.7069 51.5709 35.3946 49.1927C32.1059 46.8288 27.9608 48.051 25.1074 52.0399C22.2399 56.0477 22.415 60.3681 25.7036 62.7273C29.016 65.1055 33.1564 63.8832 36.0286 59.8754Z" fill="white"/>
<path id="Vector_4" d="M34.6233 38.761L35.8394 37.6809L38.5555 40.7507C37.8788 37.4204 39.1801 34.0237 42.1706 31.3708C45.9893 27.9836 49.4672 27.5146 53.6265 32.2093L58.4815 37.6951L57.2654 38.7752L52.647 33.5594C49.0887 29.5421 46.2353 29.6606 42.7621 32.7446C39.1943 35.9091 38.3851 40.5612 41.3757 43.939L45.8047 48.9416L44.5886 50.0217L34.6233 38.761Z" fill="white"/>
<path id="Vector_5" d="M58.5666 31.9345L60.0099 31.1292C61.8553 33.441 64.9405 32.7257 69.4689 30.2006C73.9074 27.7277 75.2371 25.9797 74.1582 24.0421C72.9895 21.9434 71.3901 22.5119 66.6724 24.7006L65.1676 25.3922C59.6361 27.9125 57.2228 28.1967 55.8553 25.7381C54.2843 22.9193 56.707 20.4749 61.3916 17.8646C66.0572 15.2638 69.308 14.6337 71.532 17.4145L70.0888 18.2199C68.3617 16.2302 65.6172 17.0782 62.0115 19.0868C57.89 21.3844 56.1534 23.1515 57.1707 24.9753C58.136 26.714 59.8916 26.2639 64.6661 24.0752L66.3175 23.3315C71.2623 21.0765 73.8033 20.2806 75.4075 23.1704C76.9784 25.9891 75.2892 28.5284 70.0604 31.4418C65.0399 34.2369 60.9657 35.2365 58.5666 31.9345Z" fill="white"/>
<path id="Vector_6" d="M81.0431 20.4701L78.1709 12.0708L73.8791 13.5441L73.4579 12.3171L77.7497 10.8438L76.4816 7.13445L77.7213 5.9738L79.2166 10.3464L86.9485 7.69346L87.365 8.9157L79.633 11.5686L82.4059 19.6742C83.6504 23.3125 85.2735 23.2746 88.1268 22.2987C89.2009 21.9292 89.9628 21.5313 91.4107 20.7354L91.8461 22.005C90.5495 22.7488 89.4517 23.2888 88.3776 23.6583C84.7387 24.9043 82.5053 24.7432 81.0431 20.4701Z" fill="white"/>
<path id="Vector_7" d="M93.2041 6.21542L94.7562 5.96907L95.1773 8.62199C97.2451 5.68009 99.5164 4.68999 101.906 4.311C103.638 4.03623 105.029 4.07413 106.117 4.19257L106.34 5.59482C104.826 5.41954 103.524 5.46691 102.076 5.69904C100.217 5.99276 97.8508 6.86443 95.3997 10.0242L97.1126 20.8349L95.5606 21.0812L93.2041 6.21542Z" fill="white"/>
<path id="Vector_8" d="M130.089 19.2668L128.466 19.21L128.608 15.1074C126.805 17.9877 123.526 19.5558 119.532 19.4137C114.431 19.2384 111.588 17.1729 111.805 10.9054L112.056 3.57671L113.679 3.63355L113.438 10.5975C113.253 15.9649 115.406 17.8456 120.043 18.0067C124.813 18.1725 128.599 15.3585 128.755 10.8438L128.987 4.16414L130.61 4.22099L130.089 19.2668Z" fill="white"/>
<path id="Vector_9" d="M136.894 5.51428L138.441 5.79379L135.777 20.6028L134.23 20.3233L136.894 5.51428ZM137.887 0L139.435 0.279504L138.957 2.94663L137.409 2.66713L137.887 0Z" fill="white"/>
<path id="Vector_10" d="M166.899 15.8465C163.217 14.3637 159.493 15.1216 157.695 19.5984L155.003 26.3018L153.498 25.6954L156.342 18.6083C158.14 14.1315 157.137 11.9192 153.427 10.4269C149.717 8.93465 146.022 9.70211 144.223 14.1789L141.531 20.8823L140.026 20.2759L145.629 6.3149L147.133 6.92128L145.875 10.0574C148.298 8.11035 151.298 8.03929 154.335 9.26153C157.638 10.588 159.29 12.5635 158.783 15.9744C161.306 13.5678 164.528 13.3593 167.802 14.6811C171.99 16.3628 173.533 19.0963 171.37 24.4874L168.47 31.7213L166.965 31.115L169.809 24.0279C171.612 19.5511 170.608 17.3387 166.899 15.8465Z" fill="white"/>
<path id="Vector_11" d="M175.246 27.922C178.246 24.08 183.332 24.0658 187.965 27.6898C192.574 31.2997 193.804 36.2597 190.799 40.1065C187.795 43.9485 182.675 43.9674 178.066 40.3575C173.438 36.7287 172.246 31.764 175.246 27.922ZM178.875 39.3201C182.732 42.3425 187.052 42.3472 189.56 39.1353C192.053 35.9423 191.012 31.7498 187.151 28.7273C183.271 25.6907 178.955 25.6859 176.462 28.8742C173.954 32.0861 175 36.2787 178.875 39.3201Z" fill="white"/>
<path id="Vector_12" d="M191.301 44.6685L192.351 45.9429C190.421 48.1789 191.68 51.0876 194.987 55.086C198.224 59.0038 200.183 59.9986 201.891 58.5821C203.736 57.052 202.889 55.5787 199.885 51.334L198.934 49.9791C195.451 44.9907 194.736 42.6694 196.899 40.8786C199.383 38.8226 202.222 40.7602 205.639 44.8959C209.041 49.0127 210.252 52.0967 207.924 54.7923L206.874 53.5179C208.516 51.4572 207.181 48.9085 204.55 45.725C201.546 42.0867 199.497 40.6986 197.888 42.0298C196.359 43.2947 197.116 44.9433 200.135 49.2448L201.167 50.7371C204.281 55.1949 205.525 57.5494 202.979 59.6528C200.495 61.7088 197.698 60.5102 193.885 55.8961C190.222 51.4619 188.495 47.6294 191.301 44.6685Z" fill="white"/>
<path id="Vector_13" d="M220.7 68.6253L221.254 70.0987L217.539 71.5009C220.653 71.7851 223.312 74.0922 224.808 78.0527C226.847 83.4627 225.214 88.0532 220.658 89.7729C216.101 91.4973 211.795 89.1523 209.755 83.7422C208.26 79.7818 208.762 76.2809 210.905 74.007L201.309 77.6358L200.755 76.1625L220.7 68.6253ZM210.976 82.9511C212.727 87.589 216.314 89.6497 220.076 88.2285C223.814 86.8168 225.12 82.899 223.369 78.2659C221.628 73.6517 218.325 71.5388 214.814 72.5337L213.654 72.9695C210.342 74.5518 209.235 78.3369 210.976 82.9511Z" fill="white"/>
<path id="Vector_14" d="M228.943 93.2501L229.199 94.804L226.554 95.2445C229.506 97.2911 230.509 99.5603 230.907 101.953C231.196 103.682 231.162 105.075 231.058 106.169L229.658 106.401C229.823 104.88 229.767 103.582 229.525 102.133C229.218 100.276 228.328 97.9069 225.153 95.4814L214.369 97.2721L214.113 95.7183L228.943 93.2501Z" fill="white"/>
<path id="Vector_15" d="M224.14 109.556C229.014 109.637 232.095 113.687 232 119.576C231.905 125.436 228.692 129.41 223.819 129.33C218.945 129.249 215.841 125.17 215.935 119.31C216.03 113.422 219.266 109.476 224.14 109.556ZM217.251 119.329C217.17 124.232 219.768 127.686 223.842 127.752C227.888 127.819 230.599 124.455 230.685 119.552C230.765 114.62 228.167 111.172 224.117 111.105C220.042 111.039 217.331 114.402 217.251 119.329Z" fill="white"/>
<path id="Vector_16" d="M210.02 129.249L211.303 129.533C210.636 131.13 210.328 131.826 210.096 132.888C209.571 135.28 211.038 136.294 213.626 138.577L214.251 139.112L214.416 138.354L230.888 133.385L230.524 135.048L214.956 139.738L227.15 150.449L226.785 152.112L213.172 140.169C210.091 137.483 208.094 135.882 208.785 132.731C209.017 131.67 209.391 130.694 210.02 129.249Z" fill="white"/>
<path id="Vector_17" d="M218.675 152.851C223.17 154.859 224.462 159.625 222.068 164.997C219.626 170.464 215.301 172.572 210.683 170.512L217.918 154.296C214.203 152.69 210.621 154.509 208.558 159.132C206.949 162.738 207.101 165.945 208.88 167.589L208.208 169.095C205.719 167.02 205.317 163.107 207.347 158.559C209.793 153.069 214.199 150.852 218.675 152.851ZM212.557 169.54C215.888 170.55 218.973 168.707 220.866 164.462C222.683 160.383 222.035 156.844 219.077 154.926L212.557 169.54Z" fill="white"/>
<path id="Vector_18" d="M208.568 174.32C212.471 177.239 212.68 182.222 209.083 187.04C206.23 190.868 202.35 192.536 199.217 191.257L200.187 189.954C202.662 190.773 205.733 189.333 208.028 186.249C211.066 182.175 210.882 177.982 207.64 175.557C204.375 173.117 200.306 174.136 197.268 178.205C194.973 181.284 194.486 184.657 195.952 186.784L194.982 188.087C192.891 185.458 193.364 181.242 196.217 177.419C199.809 172.606 204.664 171.402 208.568 174.32Z" fill="white"/>
<path id="Vector_19" d="M190.279 192.436L196.331 198.922L199.648 195.823L200.528 196.766L197.211 199.864L199.885 202.73L199.227 204.298L196.075 200.921L190.104 206.506L189.224 205.563L195.195 199.978L189.351 193.715C186.73 190.906 185.263 191.602 183.063 193.668C182.235 194.445 181.7 195.117 180.706 196.434L179.788 195.454C180.668 194.241 181.449 193.303 182.277 192.526C185.093 189.902 187.198 189.134 190.279 192.436Z" fill="white"/>
<path id="Vector_20" d="M182.31 203.427C184.903 207.558 183.191 212.352 178.213 215.483C173.258 218.601 168.176 218.075 165.588 213.939C162.995 209.808 164.717 204.976 169.671 201.863C174.649 198.737 179.722 199.296 182.31 203.427ZM170.372 202.981C166.222 205.587 164.755 209.652 166.918 213.105C169.071 216.535 173.362 216.976 177.512 214.37C181.681 211.75 183.153 207.686 181 204.256C178.837 200.798 174.541 200.357 170.372 202.981Z" fill="white"/>
<path id="Vector_21" d="M161.102 212.883L159.55 213.437C158.111 210.855 154.951 211.049 150.067 212.793C145.283 214.498 143.684 216.004 144.427 218.094C145.231 220.353 146.906 220.06 151.917 218.681L153.512 218.25C159.384 216.677 161.807 216.796 162.753 219.449C163.837 222.49 161.045 224.494 155.996 226.299C150.971 228.094 147.659 228.179 145.922 225.072L147.479 224.517C148.856 226.768 151.7 226.379 155.585 224.996C160.028 223.409 162.029 221.955 161.329 219.989C160.662 218.117 158.854 218.269 153.787 219.638L152.036 220.098C146.788 221.505 144.152 221.869 143.045 218.757C141.966 215.72 144.048 213.494 149.679 211.485C155.097 209.543 159.285 209.225 161.102 212.883Z" fill="white"/>
<path id="Vector_22" d="M129.853 237.901L123.895 238L123.763 229.819C122.305 232.088 119.67 233.447 116.291 233.504C110.722 233.594 107.059 230.43 106.974 225.394C106.893 220.387 110.447 217.047 116.017 216.957C119.395 216.9 122.073 218.174 123.607 220.42L123.554 217.35L129.512 217.25L129.853 237.901ZM118.136 221.879C114.99 221.931 113.182 223.276 113.215 225.29C113.248 227.303 115.099 228.563 118.245 228.511C121.676 228.454 123.715 227.133 123.682 225.119C123.649 223.106 121.567 221.822 118.136 221.879Z" fill="#803DEA"/>
<path id="Vector_23" d="M102.498 232.258L96.6584 231.098L97.3161 227.782C95.2294 230.235 93.0953 230.918 90.417 230.382C89.0022 230.103 88.0085 229.667 86.8728 228.89L87.8807 223.802C89.4281 224.74 90.4123 225.091 91.6473 225.337C93.3413 225.673 95.6363 225.626 98.1963 223.319L99.6679 215.877L105.507 217.037L102.498 232.258Z" fill="#803DEA"/>
<path id="Vector_24" d="M81.327 232.609L75.6914 230.681L76.8412 227.313L82.4769 229.241L81.327 232.609ZM82.9832 227.753L77.3475 225.825L82.3586 211.149L87.9943 213.077L82.9832 227.753Z" fill="#803DEA"/>
<path id="Vector_25" d="M71.4989 229.046L66.0525 226.63L74.4185 207.747L79.8649 210.163L71.4989 229.046Z" fill="#803DEA"/>
<path id="Vector_26" d="M62.0399 224.622L56.83 221.737L66.8049 203.668L72.0147 206.553L62.0399 224.622Z" fill="#803DEA"/>
<path id="Vector_27" d="M62.0399 206.842C59.4941 210.092 55.3348 208.335 51.8426 205.596C49.8552 204.038 48.1565 202.313 46.8268 200.58C45.6486 202.209 46.4104 203.664 48.8663 205.592C51.0997 207.345 53.4751 208.619 56.8821 210.206L54.8285 214.005C51.6675 212.475 48.4357 210.628 45.3694 208.221C40.2353 204.194 39.1943 200.589 42.7385 196.055L47.7164 189.698L52.4436 193.407L51.1896 195.013C54.4073 195.34 57.6297 196.785 59.6171 198.348C62.778 200.835 64.2638 204 62.0399 206.842ZM55.5808 200.239C54.1613 199.125 51.3694 197.751 49.5477 197.112L48.7527 198.126C50.3379 199.826 51.7243 201.276 53.248 202.47C55.2165 204.014 56.2054 204.171 56.9389 203.233C57.4925 202.522 57.1849 201.494 55.5808 200.239Z" fill="#803DEA"/>
<path id="Vector_28" d="M34.0128 197.86L30.2936 193.109L33.0333 190.958C29.9765 190.901 27.057 189.812 24.4166 186.439C21.568 182.8 21.2131 179.081 25.6989 175.562L32.2337 170.436L35.9529 175.187L31.2068 178.911C28.5097 181.029 27.9655 182.928 30.1753 185.752C32.4986 188.717 35.0823 189.343 37.6801 187.306L42.4877 183.535L46.2069 188.286L34.0128 197.86Z" fill="#803DEA"/>
<path id="Vector_29" d="M26.65 169.038L20.8535 171.966L22.2352 174.709L18.3456 176.675L16.9638 173.932L14.4323 175.211L10.377 170.611L14.2903 168.636L11.4559 163.012L15.3455 161.046L18.1799 166.67L22.0459 164.713C23.3093 164.074 23.9197 163.046 23.139 161.501C22.5002 160.236 22.0601 159.649 20.9102 158.232L25.1453 156.091C26.1153 157.219 27.232 158.739 28.1358 160.535C30.1516 164.519 29.7352 167.48 26.65 169.038Z" fill="#803DEA"/>
<path id="Vector_30" d="M16.9307 156.778C12.0237 158.086 7.80289 154.646 6.03316 148.014C4.17353 141.031 6.26029 136.147 12.2367 134.55L16.4954 150.534C18.303 149.516 18.672 147.389 17.8866 144.447C17.2572 142.078 16.0695 140.339 14.7919 140.036L13.2919 134.404C17.4701 134.569 20.3093 137.312 21.9938 143.727C23.773 150.411 21.7951 155.508 16.9307 156.778ZM11.0632 141.254C9.54896 142.381 9.32183 144.229 9.98429 146.721C10.7083 149.44 11.8912 150.965 13.6988 151.15L11.0632 141.254Z" fill="#803DEA"/>
<path id="Vector_31" d="M13.396 132.201L13.1831 125.957C14.2903 125.919 14.9291 125.019 14.8061 121.409C14.6973 118.183 14.2051 117.401 13.3297 117.43C12.4023 117.463 12.1752 118.372 12.0285 121.579L11.9717 122.925C11.6878 129.031 11.0916 131.916 7.68933 132.035C3.69561 132.172 2.38488 127.823 2.1956 122.252C2.00632 116.653 3.2792 112.427 7.05999 112.038L7.27292 118.282C6.24137 118.344 5.76818 119.523 5.85809 122.257C5.94799 124.938 6.42118 125.933 7.11677 125.905C7.86441 125.881 8.101 125.175 8.22876 122.124L8.30447 120.518C8.56946 114.62 9.0805 111.427 12.8424 111.299C17.1957 111.153 18.497 115.189 18.7004 121.172C18.9228 127.932 17.5175 132.087 13.396 132.201Z" fill="#803DEA"/>
</g>
</g>
</g>
<defs>
<clipPath id="clip0_132_128">
<path d="M0 0H232V228C232 233.523 227.523 238 222 238H10C4.47715 238 0 233.523 0 228V0Z" fill="white"/>
</clipPath>
</defs>
</svg>
