<svg width="230" height="58" viewBox="0 0 230 58" fill="none" xmlns="http://www.w3.org/2000/svg">
<g id="Logo Okey">
<g id="Group">
<path id="Vector" d="M186.126 37.6495L184.523 31.9951H185.211L186.617 37.0322H186.696L187.947 31.9951H188.868L190.109 37.0322H190.189L191.595 31.9951H192.275L190.683 37.6495H189.587L188.437 32.8771H188.368L187.218 37.6495H186.126Z" fill="white"/>
<path id="Vector_2" d="M193.396 37.6495V31.9951H197.181V32.6354H194.115V34.3993H196.867V35.0396H194.115V37.006H197.257V37.6463H193.396V37.6495Z" fill="white"/>
<path id="Vector_3" d="M198.393 37.6495V31.9951H200.784C201.801 31.9951 202.526 32.6289 202.526 33.5108C202.526 34.0465 202.19 34.53 201.722 34.6802V34.7619C202.285 34.922 202.684 35.4511 202.684 36.062C202.684 36.9766 201.886 37.6495 200.784 37.6495H198.393ZM199.103 34.4255H200.699C201.354 34.4255 201.823 34.0563 201.823 33.5337C201.823 33.011 201.354 32.6354 200.699 32.6354H199.103V34.4255ZM199.103 37.0093H200.683C201.44 37.0093 201.981 36.5912 201.981 36.0228C201.981 35.4707 201.443 35.069 200.683 35.069H199.103V37.0093Z" fill="white"/>
<path id="Vector_4" d="M203.546 35.8137H204.249C204.255 36.6892 204.86 37.2086 205.889 37.2086C206.788 37.2086 207.311 36.8068 207.311 36.1731C207.311 35.3956 206.544 35.2682 205.715 35.131C204.724 34.971 203.628 34.7064 203.628 33.4782C203.628 32.459 204.385 31.7926 205.715 31.7926C207.067 31.7926 207.887 32.5145 207.897 33.7101H207.209C207.209 32.9098 206.662 32.4361 205.715 32.4361C204.825 32.4361 204.34 32.8281 204.34 33.439C204.34 34.1837 205.075 34.3209 205.889 34.4483C206.89 34.6182 208.023 34.8403 208.023 36.1241C208.023 37.1824 207.235 37.8488 205.883 37.8488C204.435 37.8521 203.546 37.0714 203.546 35.8137Z" fill="white"/>
<path id="Vector_5" d="M209.211 37.6495V31.9951H209.923V37.6495H209.211Z" fill="white"/>
<path id="Vector_6" d="M212.58 37.6495V32.6386H210.759V31.9984H215.12V32.6386H213.289V37.6495H212.58Z" fill="white"/>
<path id="Vector_7" d="M215.959 37.6495V31.9951H219.743V32.6354H216.678V34.3993H219.43V35.0396H216.678V37.006H219.819V37.6463H215.959V37.6495Z" fill="white"/>
<path id="Vector_8" d="M222.612 36.2317C222.612 35.3497 223.135 34.9153 223.768 34.6213C223.47 34.2685 223.204 33.8275 223.214 33.2983C223.22 32.4654 223.885 31.8545 224.778 31.8545C225.7 31.8545 226.387 32.5111 226.396 33.4192H225.709C225.709 32.8802 225.31 32.498 224.778 32.498C224.271 32.498 223.91 32.8574 223.91 33.3571C223.91 33.7328 224.123 34.1182 224.506 34.471L226.295 36.1468C226.551 35.8103 226.757 35.3922 226.906 34.9283H227.571C227.375 35.5522 227.087 36.0978 226.741 36.5551L227.929 37.6526H226.966L226.301 37.0353C225.753 37.5481 225.104 37.8519 224.433 37.8519C223.369 37.8519 222.612 37.1692 222.612 36.2317ZM225.855 36.6171L224.214 35.0688C223.66 35.2844 223.309 35.6078 223.309 36.2088C223.309 36.7935 223.825 37.2117 224.528 37.2117C225.019 37.2084 225.465 36.9928 225.855 36.6171Z" fill="white"/>
<path id="Vector_9" d="M184.511 42.8237C184.511 41.0663 185.708 39.8022 187.364 39.8022C188.608 39.8022 189.701 40.6678 189.976 41.8536L189.28 41.9483C189.077 41.0729 188.273 40.4392 187.364 40.4392C186.113 40.4392 185.223 41.442 185.223 42.8205C185.223 44.2087 186.123 45.2116 187.364 45.2116C188.254 45.2116 189.061 44.5942 189.286 43.7612L189.967 43.8984C189.695 45.0287 188.599 45.8551 187.364 45.8551C185.708 45.8551 184.504 44.5811 184.511 42.8237Z" fill="white"/>
<path id="Vector_10" d="M191.126 45.6558V40.0014H193.526C194.723 40.0014 195.512 40.6743 195.512 41.7164C195.512 42.68 194.777 43.3529 193.754 43.4019H193.659L195.661 45.6558H194.761L192.855 43.4411H191.838V45.6558H191.126ZM191.835 42.8009H193.523C194.312 42.8009 194.796 42.3827 194.796 41.7196C194.796 41.0631 194.312 40.6449 193.523 40.6449H191.835V42.8009Z" fill="white"/>
<path id="Vector_11" d="M196.668 45.6558V40.0014H200.452V40.6417H197.386V42.4056H200.138V43.0459H197.386V45.009H200.528V45.6493H196.668V45.6558Z" fill="white"/>
<path id="Vector_12" d="M201.155 45.6558L203.235 40.0014H204.204L206.259 45.6558H205.579L205.11 44.3884H202.304L201.836 45.6558H201.155ZM202.516 43.7874H204.907L203.751 40.6449H203.682L202.516 43.7874Z" fill="white"/>
<path id="Vector_13" d="M208.004 45.6558V40.6449H206.183V40.0047H210.544V40.6449H208.714V45.6558H208.004Z" fill="white"/>
<path id="Vector_14" d="M211.383 45.6558V40.0014H212.096V45.6558H211.383Z" fill="white"/>
<path id="Vector_15" d="M215.025 45.6558L213.061 40.0014H213.79L215.547 45.1103H215.617L217.368 40.0014H218.096L216.133 45.6558H215.025Z" fill="white"/>
<path id="Vector_16" d="M219.065 45.6558V40.0014H219.778V45.6558H219.065Z" fill="white"/>
<path id="Vector_17" d="M222.435 45.6558V40.6449H220.614V40.0047H224.974V40.6449H223.144V45.6558H222.435Z" fill="white"/>
<path id="Vector_18" d="M227.299 45.6558V43.5881L225.307 40.0047H226.057L227.622 42.8923H227.701L229.234 40.0047H230L228.021 43.5881V45.6558H227.299Z" fill="white"/>
</g>
<g id="Group_2">
<path id="Vector_19" d="M184.514 8.06115C184.514 5.72231 186.385 4.2197 189.327 4.2197C192.136 4.2197 193.928 5.72231 193.928 8.06115C193.928 10.4196 192.136 11.9255 189.327 11.9255C186.385 11.9255 184.514 10.4229 184.514 8.06115ZM189.327 10.7985C191.392 10.7985 192.706 9.73362 192.706 8.06442C192.706 6.41481 191.392 5.35972 189.327 5.35972C187.12 5.35972 185.724 6.41481 185.724 8.06442C185.724 9.73362 187.12 10.7985 189.327 10.7985ZM187.282 6.11102H190.081C191.069 6.11102 191.68 6.6108 191.68 7.41764C191.68 8.00235 191.395 8.42047 190.949 8.61973L191.743 9.85121H190.249L189.669 8.85819H188.51V9.85121H187.288V6.11102H187.282ZM189.878 7.87496C190.223 7.87496 190.417 7.72796 190.417 7.4895C190.417 7.26085 190.223 7.11385 189.878 7.11385H188.504V7.87496H189.878Z" fill="white"/>
</g>
<path id="Vector_20" d="M59.6456 4.09561H71.0836V25.3804L85.6408 14.2056H102.773L86.1348 26.6478L102.773 44.7314H88.76L78.1643 32.5897L71.0836 37.9239V44.7314H59.6456V4.09561Z" fill="white"/>
<path id="Vector_21" d="M97.918 29.4929C97.918 19.4875 106.386 13.1864 119.556 13.1864C133.42 13.1864 141.441 19.6378 141.441 31.8285H109.701C110.692 35.7908 114.454 37.5678 120.297 37.5678C124.999 37.5678 128.812 36.1959 130.003 33.9093H141.194C138.816 41.7817 132.33 45.7963 119.607 45.744C106.335 45.7473 97.8705 39.3971 97.918 29.4929ZM129.607 26.1905C128.271 22.7377 124.952 21.3658 120.002 21.3658C114.606 21.3658 111.19 22.839 109.951 26.1905H129.607Z" fill="white"/>
<path id="Vector_22" d="M170.653 14.2023L160.206 36.7545L149.76 14.2023H137.381L148.278 37.7736L148.236 37.754L150.77 43.1667L151.492 44.7314H151.501L153.192 48.3409C152.23 48.7263 151.058 48.7949 149.411 48.7949C147.381 48.7949 144.313 48.2886 139.854 47.2695V56.1087C143.718 57.2782 147.926 57.938 150.995 57.938C160.254 57.938 165.203 52.705 169.314 43.7155L183.029 14.2023H170.653Z" fill="white"/>
<path id="Vector_23" d="M51.7067 16.4823C51.1652 16.0022 50.5983 15.5546 50.003 15.1431C45.9687 12.36 40.9938 11.2722 36.1456 11.3865C33.587 11.4486 30.6198 11.6675 28.9161 9.69773C28.8686 9.64546 28.7831 9.5148 28.7831 9.5148C28.039 8.48257 27.7128 7.12043 27.1998 5.91507C26.4905 4.24587 25.3283 2.76939 23.8368 1.7927C17.3229 -2.47014 8.00658 2.11282 3.79807 7.76393C-1.83228 15.3292 -1.24961 26.932 5.85957 33.2691C6.40107 33.7493 6.96791 34.1968 7.56324 34.6084C11.5976 37.3915 16.5724 38.4792 21.4206 38.3649C23.9793 38.3028 26.9465 38.084 28.6501 40.0537C28.6945 40.106 28.7831 40.2366 28.7831 40.2366C29.5273 41.2689 29.8535 42.631 30.3665 43.8364C31.0758 45.5056 32.238 46.982 33.7295 47.9587C40.2433 52.2216 49.5628 47.6386 53.7682 41.9875C59.4017 34.4189 58.8159 22.8194 51.7067 16.4823ZM38.489 39.8838C36.3261 40.253 34.1031 40.1909 31.9466 39.8054C30.6261 39.5703 29.6096 39.0574 28.837 38.1134L28.7831 38.0382C28.362 37.4568 27.982 36.6892 27.6146 35.6765C27.5196 35.327 27.4056 34.9873 27.2726 34.6541C27.2695 34.6443 27.2663 34.6378 27.2631 34.628C26.3543 32.7824 25.2839 31.2373 23.5423 30.1299C22.7094 29.6008 21.8259 29.248 20.8854 28.9997C19.5776 28.6567 18.2856 28.7809 17.0189 28.206C16.0341 27.7617 15.1538 27.0953 14.4508 26.2591C12.8738 24.3776 12.3101 21.8297 12.3101 19.3961C12.3101 14.9079 14.4888 10.6548 19.0773 9.87085C21.2401 9.50173 23.4631 9.5638 25.6196 9.94925C26.9496 10.1877 27.9693 10.7038 28.7451 11.6609L28.7831 11.7165C29.2043 12.2979 29.5843 13.0655 29.9516 14.0782C30.0466 14.4277 30.1606 14.7674 30.2936 15.1006C30.2968 15.1104 30.3 15.1169 30.3031 15.1267C31.212 16.9723 32.2823 18.5174 34.024 19.6247C34.8568 20.1539 35.7403 20.5067 36.6808 20.755C37.9886 21.098 39.2806 20.9738 40.5473 21.5487C41.5322 21.993 42.4125 22.6594 43.1155 23.4956C44.6925 25.3771 45.2562 27.925 45.2562 30.3586C45.2562 34.8468 43.0775 39.0999 38.489 39.8838Z" fill="#803DEA"/>
</g>
</svg>
