<svg width="35" height="46" viewBox="0 0 35 46" fill="none" xmlns="http://www.w3.org/2000/svg">
<g id="&#240;&#159;&#166;&#134; icon &#34;arrow down&#34;">
<path id="Vector" d="M34.3282 23.122C34.3234 24.0898 34.1031 25.0444 33.6834 25.9165C33.2637 26.7886 32.6551 27.5563 31.9018 28.164L12.5664 44.124C11.4024 45.0566 9.99973 45.6435 8.51835 45.8177C7.03697 45.992 5.53643 45.7466 4.18772 45.1096C3.01556 44.593 2.01689 43.7499 1.31099 42.6811C0.605097 41.6122 0.221805 40.3628 0.206894 39.082L0.206893 7.16206C0.221804 5.88127 0.605096 4.63184 1.31099 3.56299C2.01689 2.49414 3.01556 1.65106 4.18772 1.13443C5.53643 0.497421 7.03697 0.252067 8.51835 0.426334C9.99973 0.600601 11.4024 1.18747 12.5664 2.12007L31.9018 18.08C32.6551 18.6877 33.2637 19.4555 33.6834 20.3276C34.1031 21.1997 34.3234 22.1542 34.3282 23.122Z" fill="white"/>
</g>
</svg>
