<svg width="197" height="168" viewBox="0 0 197 168" fill="none" xmlns="http://www.w3.org/2000/svg">
<path id="Vector" d="M176.619 55.4651C174.779 53.8373 172.853 52.3202 170.83 50.925C157.119 41.4903 140.213 37.8027 123.737 38.1903C115.042 38.4007 104.958 39.1427 99.1684 32.4653C99.0069 32.2881 98.7164 31.8451 98.7164 31.8451C96.1874 28.3459 95.079 23.7282 93.3356 19.642C90.925 13.9834 86.9755 8.97816 81.9068 5.66716C59.7703 -8.78389 28.1098 6.75237 13.8077 25.9097C-5.32633 51.5562 -3.3462 90.8896 20.8135 112.372C22.6537 114 24.58 115.517 26.6032 116.913C40.3134 126.347 57.2198 130.035 73.6958 129.647C82.3911 129.437 92.4747 128.695 98.2644 135.372C98.415 135.549 98.7164 135.992 98.7164 135.992C101.245 139.492 102.354 144.109 104.097 148.195C106.508 153.854 110.457 158.859 115.526 162.17C137.662 176.621 169.334 161.085 183.625 141.928C202.77 116.27 200.779 76.9479 176.619 55.4651ZM131.701 134.796C124.35 136.048 116.796 135.837 109.467 134.531C104.98 133.733 101.525 131.995 98.8993 128.795L98.7164 128.54C97.2851 126.569 95.9937 123.966 94.7454 120.534C94.4225 119.349 94.0351 118.197 93.5831 117.068C93.5723 117.034 93.5616 117.012 93.5508 116.979C90.4623 110.722 86.8249 105.485 80.906 101.731C78.0757 99.9367 75.0732 98.7408 71.8771 97.8992C67.4325 96.7365 63.0418 97.1573 58.7372 95.2083C55.3904 93.7023 52.3986 91.4433 50.0096 88.6084C44.6503 82.23 42.7348 73.5926 42.7348 65.3428C42.7348 50.1277 50.1387 35.7098 65.7322 33.0522C73.0824 31.8009 80.637 32.0113 87.9656 33.3179C92.4854 34.1263 95.9506 35.8759 98.5872 39.1205L98.7164 39.3088C100.148 41.2799 101.439 43.8822 102.687 47.315C103.01 48.4998 103.398 49.6515 103.85 50.781C103.86 50.8142 103.871 50.8364 103.882 50.8696C106.97 57.1262 110.608 62.364 116.527 66.1179C119.357 67.9119 122.36 69.1078 125.556 69.9494C130 71.1121 134.391 70.6913 138.696 72.6403C142.042 74.1463 145.034 76.4053 147.423 79.2402C152.782 85.6186 154.698 94.256 154.698 102.506C154.698 117.721 147.294 132.139 131.701 134.796Z" fill="#803DEA"/>
</svg>
