<svg width="70" height="168" viewBox="0 0 70 168" fill="none" xmlns="http://www.w3.org/2000/svg">
<path id="Vector" d="M49.3299 55.4651C47.4897 53.8373 45.5633 52.3202 43.5402 50.925C29.8299 41.4903 12.9236 37.8027 -3.55239 38.1903C-12.2477 38.4007 -22.3313 39.1427 -28.121 32.4653C-28.2824 32.2881 -28.573 31.8451 -28.573 31.8451C-31.102 28.3459 -32.2104 23.7282 -33.9538 19.642C-36.3644 13.9834 -40.3139 8.97816 -45.3825 5.66716C-67.5191 -8.78389 -99.1795 6.75237 -113.482 25.9097C-132.616 51.5562 -130.636 90.8896 -106.476 112.372C-104.636 114 -102.709 115.517 -100.686 116.913C-86.9759 126.347 -70.0695 130.035 -53.5936 129.647C-44.8983 129.437 -34.8147 128.695 -29.025 135.372C-28.8743 135.549 -28.573 135.992 -28.573 135.992C-26.044 139.492 -24.9356 144.109 -23.1922 148.195C-20.7816 153.854 -16.8321 158.859 -11.7635 162.17C10.3731 176.621 42.0443 161.085 56.3356 141.928C75.4804 116.27 73.4896 76.9479 49.3299 55.4651ZM4.41116 134.796C-2.93898 136.048 -10.4936 135.837 -17.8222 134.531C-22.3098 133.733 -25.7642 131.995 -28.3901 128.795L-28.573 128.54C-30.0043 126.569 -31.2957 123.966 -32.544 120.534C-32.8669 119.349 -33.2543 118.197 -33.7063 117.068C-33.717 117.034 -33.7278 117.012 -33.7385 116.979C-36.8271 110.722 -40.4645 105.485 -46.3834 101.731C-49.2137 99.9367 -52.2161 98.7408 -55.4123 97.8992C-59.8568 96.7365 -64.2475 97.1573 -68.5522 95.2083C-71.899 93.7023 -74.8907 91.4433 -77.2798 88.6084C-82.639 82.23 -84.5546 73.5926 -84.5546 65.3428C-84.5546 50.1277 -77.1506 35.7098 -61.5572 33.0522C-54.207 31.8009 -46.6524 32.0113 -39.3238 33.3179C-34.8039 34.1263 -31.3387 35.8759 -28.7021 39.1205L-28.573 39.3088C-27.1417 41.2799 -25.8503 43.8822 -24.602 47.315C-24.2791 48.4998 -23.8917 49.6515 -23.4397 50.781C-23.429 50.8142 -23.4182 50.8364 -23.4074 50.8696C-20.3189 57.1262 -16.6815 62.364 -10.7626 66.1179C-7.93233 67.9119 -4.92986 69.1078 -1.73368 69.9494C2.71085 71.1121 7.10153 70.6913 11.4062 72.6403C14.753 74.1463 17.7447 76.4053 20.1338 79.2402C25.493 85.6186 27.4086 94.256 27.4086 102.506C27.4086 117.721 20.0047 132.139 4.41116 134.796Z" fill="#803DEA"/>
</svg>
